# MagicaVoxel @ Ephtracy

# group
o 

# material
mtllib BMO.mtl
usemtl palette

# normals
vn -1 0 0
vn 1 0 0
vn 0 0 1
vn 0 0 -1
vn 0 -1 0
vn 0 1 0

# texcoords
vt 0.00976562 0.5
vt 0.0214844 0.5
vt 0.228516 0.5
vt 0.587891 0.5
vt 0.728516 0.5
vt 0.751953 0.5
vt 0.845703 0.5
vt 0.916016 0.5
vt 0.958984 0.5

# verts
v -1 0.5 0.6
v -1 0.5 0.5
v -1 0.5 -0.7
v -1 0.5 -0.8
v -1 0.6 0.6
v -1 0.6 0.5
v -1 0.6 -0.7
v -1 0.6 -0.8
v -1 1.5 0.6
v -1 1.5 0.5
v -1 1.5 -0.7
v -1 1.5 -0.8
v -1 1.6 0.6
v -1 1.6 0.5
v -1 1.6 -0.7
v -1 1.6 -0.8
v -0.9 0.4 0.7
v -0.9 0.4 -0.9
v -0.9 0.5 0.6
v -0.9 0.5 0.5
v -0.9 0.5 -0.7
v -0.9 0.5 -0.8
v -0.9 0.6 0.6
v -0.9 0.6 0.5
v -0.9 0.6 -0.7
v -0.9 0.6 -0.8
v -0.9 1.5 0.6
v -0.9 1.5 0.5
v -0.9 1.5 -0.7
v -0.9 1.5 -0.8
v -0.9 1.6 0.6
v -0.9 1.6 0.5
v -0.9 1.6 -0.7
v -0.9 1.6 -0.8
v -0.9 1.7 0.7
v -0.9 1.7 -0.9
v -0.8 0 0.8
v -0.8 0 -0.9
v -0.8 0.1 0.9
v -0.8 0.1 0.8
v -0.8 0.1 0.6
v -0.8 0.1 -0.8
v -0.8 0.1 -0.9
v -0.8 0.1 -1.1
v -0.8 0.3 0.6
v -0.8 0.3 -0.8
v -0.8 0.4 0.7
v -0.8 0.4 -0.9
v -0.8 1.7 0.7
v -0.8 1.7 -0.9
v -0.8 1.8 0.6
v -0.8 1.8 0.4
v -0.8 1.8 0.3
v -0.8 1.8 0.0999999
v -0.8 1.8 -1.19209e-07
v -0.8 1.8 -0.2
v -0.8 1.8 -0.3
v -0.8 1.8 -0.5
v -0.8 1.8 -0.6
v -0.8 1.8 -0.8
v -0.8 2.7 0.9
v -0.8 2.7 0.8
v -0.8 2.7 0.6
v -0.8 2.7 0.4
v -0.8 2.7 0.3
v -0.8 2.7 0.0999999
v -0.8 2.7 -1.19209e-07
v -0.8 2.7 -0.2
v -0.8 2.7 -0.3
v -0.8 2.7 -0.5
v -0.8 2.7 -0.6
v -0.8 2.7 -0.8
v -0.8 2.7 -1
v -0.8 2.7 -1.1
v -0.8 2.8 0.8
v -0.8 2.8 -1
v -0.7 0 0.9
v -0.7 0 0.8
v -0.7 0 -0.9
v -0.7 0 -1
v -0.7 0.1 0.9
v -0.7 0.1 0.8
v -0.7 0.1 -0.9
v -0.7 0.1 -1
v -0.7 2.7 0.9
v -0.7 2.7 0.8
v -0.7 2.7 -1
v -0.7 2.7 -1.1
v -0.7 2.8 0.9
v -0.7 2.8 0.8
v -0.7 2.8 -1
v -0.7 2.8 -1.1
v -0.7 2.9 0.8
v -0.7 2.9 -1
v -0.6 0 -1
v -0.6 0 -1.1
v -0.6 0.1 -1
v -0.6 0.1 -1.1
v -0.0999999 0.2 -1.1
v -0.0999999 0.2 -1.2
v -0.0999999 0.3 1
v -0.0999999 0.3 0.9
v -0.0999999 0.3 -1.1
v -0.0999999 0.5 1
v -0.0999999 0.5 0.9
v -0.0999999 0.5 -1.1
v -0.0999999 0.6 -1.1
v -0.0999999 0.6 -1.2
v 1.19209e-07 0.5 1
v 1.19209e-07 0.5 0.9
v 1.19209e-07 0.6 0.9
v 1.19209e-07 0.6 -1.1
v 1.19209e-07 0.6 -1.2
v 1.19209e-07 0.7 1
v 1.19209e-07 0.7 0.9
v 1.19209e-07 0.7 -1.1
v 1.19209e-07 0.7 -1.2
v 0.1 0.7 1
v 0.1 0.7 0.9
v 0.1 0.7 -1.1
v 0.1 0.7 -1.2
v 0.1 0.8 1
v 0.1 0.8 0.9
v 0.1 0.8 -1.1
v 0.1 0.8 -1.2
v 0.2 0.8 1
v 0.2 0.8 0.9
v 0.2 0.8 -1.1
v 0.2 0.8 -1.2
v 0.2 0.9 1
v 0.2 0.9 0.9
v 0.2 0.9 -1.1
v 0.2 0.9 -1.2
v 0.3 0.9 1
v 0.3 0.9 0.9
v 0.3 0.9 -1.1
v 0.3 0.9 -1.2
v 0.3 1 1
v 0.3 1 0.9
v 0.3 1 -1.1
v 0.3 1 -1.2
v 0.4 1 1
v 0.4 1 0.9
v 0.4 1 -1.1
v 0.4 1 -1.2
v 0.4 1.1 1
v 0.4 1.1 0.9
v 0.4 1.1 -1.1
v 0.4 1.1 -1.2
v 1.3 0.1 0.3
v 1.3 0.1 0.0999999
v 1.3 0.1 -0.2
v 1.3 0.1 -0.4
v 1.3 0.3 0.3
v 1.3 0.3 0.0999999
v 1.3 0.3 -0.2
v 1.3 0.3 -0.4
v 0.1 0.2 -1.1
v 0.1 0.2 -1.2
v 0.1 0.3 -1.1
v 0.1 0.3 -1.2
v 0.2 0.3 1
v 0.2 0.3 0.9
v 0.2 0.3 -1.1
v 0.2 0.3 -1.2
v 0.2 0.4 1
v 0.2 0.4 0.9
v 0.2 0.4 -1.1
v 0.2 0.4 -1.2
v 0.3 0.4 1
v 0.3 0.4 0.9
v 0.3 0.4 -1.1
v 0.3 0.4 -1.2
v 0.3 0.5 1
v 0.3 0.5 0.9
v 0.3 0.5 -1.1
v 0.3 0.5 -1.2
v 0.4 0.5 1
v 0.4 0.5 0.9
v 0.4 0.5 -1.1
v 0.4 0.5 -1.2
v 0.4 0.6 1
v 0.4 0.6 0.9
v 0.4 0.6 -1.1
v 0.4 0.6 -1.2
v 0.5 0 0.9
v 0.5 0 0.8
v 0.5 0 -1
v 0.5 0 -1.1
v 0.5 0.1 0.9
v 0.5 0.1 0.8
v 0.5 0.1 -1
v 0.5 0.1 -1.1
v 0.5 0.6 1
v 0.5 0.6 0.9
v 0.5 0.6 -1.1
v 0.5 0.6 -1.2
v 0.5 0.8 1
v 0.5 0.8 0.9
v 0.5 0.8 -1.1
v 0.5 0.8 -1.2
v 0.6 0 0.8
v 0.6 0 0.7
v 0.6 0 -0.9
v 0.6 0 -1
v 0.6 0.1 0.8
v 0.6 0.1 0.7
v 0.6 0.1 -0.9
v 0.6 0.1 -1
v 0.6 0.8 1
v 0.6 0.8 0.9
v 0.6 0.8 -1.1
v 0.6 0.8 -1.2
v 0.6 1.1 1
v 0.6 1.1 0.9
v 0.6 1.1 -1.1
v 0.6 1.1 -1.2
v 0.6 2.7 0.9
v 0.6 2.7 0.8
v 0.6 2.7 -1
v 0.6 2.7 -1.1
v 0.6 2.8 0.9
v 0.6 2.8 0.8
v 0.6 2.8 -1
v 0.6 2.8 -1.1
v 0.6 2.9 0.8
v 0.6 2.9 -1
v 0.7 0 0.7
v 0.7 0 0.3
v 0.7 0 0.0999999
v 0.7 0 -0.2
v 0.7 0 -0.4
v 0.7 0 -0.9
v 0.7 0.1 0.9
v 0.7 0.1 0.7
v 0.7 0.1 0.3
v 0.7 0.1 0.0999999
v 0.7 0.1 -0.2
v 0.7 0.1 -0.4
v 0.7 0.1 -0.9
v 0.7 0.1 -1.1
v 0.7 0.3 0.7
v 0.7 0.3 0.4
v 0.7 0.3 0.3
v 0.7 0.3 -1.19209e-07
v 0.7 0.4 0.7
v 0.7 0.4 0.4
v 0.7 0.4 0.3
v 0.7 0.4 -1.19209e-07
v 0.7 0.4 -0.7
v 0.7 0.4 -0.9
v 0.7 0.6 0.5
v 0.7 0.6 0.3
v 0.7 0.6 -0.7
v 0.7 0.6 -0.9
v 0.7 0.8 0.7
v 0.7 0.8 0.5
v 0.7 0.8 0.3
v 0.7 0.8 0.0999999
v 0.7 0.8 -0.4
v 0.7 0.8 -0.6
v 0.7 1 0.7
v 0.7 1 0.5
v 0.7 1 0.3
v 0.7 1 0.0999999
v 0.7 1 -0.4
v 0.7 1 -0.6
v 0.7 1.2 0.5
v 0.7 1.2 0.3
v 0.7 1.2 -0.6
v 0.7 1.2 -0.8
v 0.7 1.3 0.7
v 0.7 1.3 -1.19209e-07
v 0.7 1.4 0.7
v 0.7 1.4 -1.19209e-07
v 0.7 1.4 -0.6
v 0.7 1.4 -0.8
v 0.7 1.5 0.7
v 0.7 1.5 -0.9
v 0.7 2.6 0.7
v 0.7 2.6 -0.9
v 0.7 2.7 0.9
v 0.7 2.7 0.8
v 0.7 2.7 -1
v 0.7 2.7 -1.1
v 0.7 2.8 0.8
v 0.7 2.8 -1
v 0.8 0.3 0.7
v 0.8 0.3 0.4
v 0.8 0.3 0.3
v 0.8 0.3 -1.19209e-07
v 0.8 0.4 0.7
v 0.8 0.4 0.4
v 0.8 0.4 0.3
v 0.8 0.4 -1.19209e-07
v 0.8 0.4 -0.7
v 0.8 0.4 -0.9
v 0.8 0.6 0.5
v 0.8 0.6 0.3
v 0.8 0.6 -0.7
v 0.8 0.6 -0.9
v 0.8 0.8 0.7
v 0.8 0.8 0.5
v 0.8 0.8 0.3
v 0.8 0.8 0.0999999
v 0.8 0.8 -0.4
v 0.8 0.8 -0.6
v 0.8 1 0.7
v 0.8 1 0.5
v 0.8 1 0.3
v 0.8 1 0.0999999
v 0.8 1 -0.4
v 0.8 1 -0.6
v 0.8 1.2 0.5
v 0.8 1.2 0.3
v 0.8 1.2 -0.6
v 0.8 1.2 -0.8
v 0.8 1.3 0.7
v 0.8 1.3 -1.19209e-07
v 0.8 1.4 0.7
v 0.8 1.4 -1.19209e-07
v 0.8 1.4 -0.6
v 0.8 1.4 -0.8
v 0.8 1.5 0.7
v 0.8 1.5 -0.9
v 0.8 1.8 0.2
v 0.8 1.8 -0.4
v 0.8 1.9 0.2
v 0.8 1.9 -0.4
v 0.8 2 0.5
v 0.8 2 0.3
v 0.8 2 -0.5
v 0.8 2 -0.7
v 0.8 2.2 0.5
v 0.8 2.2 0.3
v 0.8 2.2 -0.5
v 0.8 2.2 -0.7
v 0.8 2.6 0.7
v 0.8 2.6 -0.9
v 1.4 0 0.3
v 1.4 0 0.0999999
v 1.4 0 -0.2
v 1.4 0 -0.4
v 1.4 0.3 0.3
v 1.4 0.3 0.0999999
v 1.4 0.3 -0.2
v 1.4 0.3 -0.4
v -0.0999999 0.3 1
v -0.0999999 0.5 1
v 1.19209e-07 0.5 1
v 1.19209e-07 0.7 1
v 0.1 0.7 1
v 0.1 0.8 1
v 0.2 0.3 1
v 0.2 0.4 1
v 0.2 0.8 1
v 0.2 0.9 1
v 0.3 0.4 1
v 0.3 0.5 1
v 0.3 0.9 1
v 0.3 1 1
v 0.4 0.5 1
v 0.4 0.6 1
v 0.4 1 1
v 0.4 1.1 1
v 0.5 0.6 1
v 0.5 0.8 1
v 0.6 0.8 1
v 0.6 1.1 1
v -0.8 0.1 0.9
v -0.8 2.7 0.9
v -0.7 0 0.9
v -0.7 0.1 0.9
v -0.7 2.7 0.9
v -0.7 2.8 0.9
v -0.6 2.3 0.9
v -0.6 2.5 0.9
v -0.4 2.1 0.9
v -0.4 2.3 0.9
v -0.4 2.5 0.9
v -0.4 2.7 0.9
v -0.3 0.2 0.9
v -0.3 0.6 0.9
v -0.3 0.7 0.9
v -0.3 0.8 0.9
v -0.3 1.1 0.9
v -0.3 1.2 0.9
v -0.3 1.3 0.9
v -0.3 1.8 0.9
v -0.2 0.3 0.9
v -0.2 0.5 0.9
v -0.2 1.4 0.9
v -0.2 1.7 0.9
v -0.2 2.1 0.9
v -0.2 2.3 0.9
v -0.2 2.5 0.9
v -0.2 2.7 0.9
v -0.0999999 0.3 0.9
v -0.0999999 0.5 0.9
v 1.19209e-07 0.5 0.9
v 1.19209e-07 0.6 0.9
v 1.19209e-07 0.7 0.9
v 1.19209e-07 2.1 0.9
v 1.19209e-07 2.3 0.9
v 1.19209e-07 2.5 0.9
v 1.19209e-07 2.7 0.9
v 0.1 0.7 0.9
v 0.1 0.8 0.9
v 0.1 1.4 0.9
v 0.1 1.7 0.9
v 0.2 0.3 0.9
v 0.2 0.4 0.9
v 0.2 0.8 0.9
v 0.2 0.9 0.9
v 0.2 1.1 0.9
v 0.2 1.4 0.9
v 0.2 1.7 0.9
v 0.2 2.1 0.9
v 0.2 2.3 0.9
v 0.2 2.5 0.9
v 0.2 2.7 0.9
v 0.3 0.4 0.9
v 0.3 0.5 0.9
v 0.3 0.9 0.9
v 0.3 1 0.9
v 0.3 1.1 0.9
v 0.4 0.3 0.9
v 0.4 0.5 0.9
v 0.4 0.6 0.9
v 0.4 1 0.9
v 0.4 1.1 0.9
v 0.4 1.4 0.9
v 0.4 1.7 0.9
v 0.4 2.3 0.9
v 0.4 2.5 0.9
v 0.5 0 0.9
v 0.5 0.1 0.9
v 0.5 0.2 0.9
v 0.5 0.6 0.9
v 0.5 0.8 0.9
v 0.5 1.1 0.9
v 0.5 1.2 0.9
v 0.5 1.3 0.9
v 0.5 1.8 0.9
v 0.6 0.8 0.9
v 0.6 1.1 0.9
v 0.6 2.7 0.9
v 0.6 2.8 0.9
v 0.7 0.1 0.9
v 0.7 2.7 0.9
v -0.8 0 0.8
v -0.8 0.1 0.8
v -0.8 2.7 0.8
v -0.8 2.8 0.8
v -0.7 0 0.8
v -0.7 0.1 0.8
v -0.7 2.7 0.8
v -0.7 2.8 0.8
v -0.7 2.9 0.8
v 0.5 0 0.8
v 0.5 0.1 0.8
v 0.6 0 0.8
v 0.6 0.1 0.8
v 0.6 2.7 0.8
v 0.6 2.8 0.8
v 0.6 2.9 0.8
v 0.7 2.7 0.8
v 0.7 2.8 0.8
v -0.9 0.4 0.7
v -0.9 1.7 0.7
v -0.8 0.4 0.7
v -0.8 1.7 0.7
v 0.6 0 0.7
v 0.6 0.1 0.7
v 0.7 0 0.7
v 0.7 0.1 0.7
v 0.7 0.3 0.7
v 0.7 0.4 0.7
v 0.7 0.8 0.7
v 0.7 1 0.7
v 0.7 1.3 0.7
v 0.7 1.4 0.7
v 0.7 1.5 0.7
v 0.7 2.6 0.7
v 0.8 0.3 0.7
v 0.8 0.4 0.7
v 0.8 0.8 0.7
v 0.8 1 0.7
v 0.8 1.3 0.7
v 0.8 1.4 0.7
v 0.8 1.5 0.7
v 0.8 2.6 0.7
v -1 0.5 0.6
v -1 0.6 0.6
v -1 1.5 0.6
v -1 1.6 0.6
v -0.9 0.5 0.6
v -0.9 0.6 0.6
v -0.9 1.5 0.6
v -0.9 1.6 0.6
v 0.7 0.6 0.5
v 0.7 0.8 0.5
v 0.7 1 0.5
v 0.7 1.2 0.5
v 0.8 0.6 0.5
v 0.8 0.8 0.5
v 0.8 1 0.5
v 0.8 1.2 0.5
v 0.7 0 0.3
v 0.7 0.1 0.3
v 0.7 0.3 0.3
v 0.7 0.4 0.3
v 0.8 0.3 0.3
v 0.8 0.4 0.3
v 1.3 0.1 0.3
v 1.3 0.3 0.3
v 1.4 0 0.3
v 1.4 0.3 0.3
v 0.7 0 -0.2
v 0.7 0.1 -0.2
v 1.3 0.1 -0.2
v 1.3 0.3 -0.2
v 1.4 0 -0.2
v 1.4 0.3 -0.2
v 0.7 0.8 -0.4
v 0.7 1 -0.4
v 0.8 0.8 -0.4
v 0.8 1 -0.4
v 0.7 1.2 -0.6
v 0.7 1.4 -0.6
v 0.8 1.2 -0.6
v 0.8 1.4 -0.6
v -1 0.5 -0.7
v -1 0.6 -0.7
v -1 1.5 -0.7
v -1 1.6 -0.7
v -0.9 0.5 -0.7
v -0.9 0.6 -0.7
v -0.9 1.5 -0.7
v -0.9 1.6 -0.7
v 0.7 0.4 -0.7
v 0.7 0.6 -0.7
v 0.8 0.4 -0.7
v 0.8 0.6 -0.7
v -1 0.5 0.5
v -1 0.6 0.5
v -1 1.5 0.5
v -1 1.6 0.5
v -0.9 0.5 0.5
v -0.9 0.6 0.5
v -0.9 1.5 0.5
v -0.9 1.6 0.5
v 0.7 0.3 0.4
v 0.7 0.4 0.4
v 0.8 0.3 0.4
v 0.8 0.4 0.4
v 0.7 0.6 0.3
v 0.7 0.8 0.3
v 0.7 1 0.3
v 0.7 1.2 0.3
v 0.8 0.6 0.3
v 0.8 0.8 0.3
v 0.8 1 0.3
v 0.8 1.2 0.3
v 0.7 0 0.0999999
v 0.7 0.1 0.0999999
v 0.7 0.8 0.0999999
v 0.7 1 0.0999999
v 0.8 0.8 0.0999999
v 0.8 1 0.0999999
v 1.3 0.1 0.0999999
v 1.3 0.3 0.0999999
v 1.4 0 0.0999999
v 1.4 0.3 0.0999999
v 0.7 0.3 -1.19209e-07
v 0.7 0.4 -1.19209e-07
v 0.7 1.3 -1.19209e-07
v 0.7 1.4 -1.19209e-07
v 0.8 0.3 -1.19209e-07
v 0.8 0.4 -1.19209e-07
v 0.8 1.3 -1.19209e-07
v 0.8 1.4 -1.19209e-07
v 0.7 0 -0.4
v 0.7 0.1 -0.4
v 1.3 0.1 -0.4
v 1.3 0.3 -0.4
v 1.4 0 -0.4
v 1.4 0.3 -0.4
v 0.7 0.8 -0.6
v 0.7 1 -0.6
v 0.8 0.8 -0.6
v 0.8 1 -0.6
v -1 0.5 -0.8
v -1 0.6 -0.8
v -1 1.5 -0.8
v -1 1.6 -0.8
v -0.9 0.5 -0.8
v -0.9 0.6 -0.8
v -0.9 1.5 -0.8
v -0.9 1.6 -0.8
v 0.7 1.2 -0.8
v 0.7 1.4 -0.8
v 0.8 1.2 -0.8
v 0.8 1.4 -0.8
v -0.9 0.4 -0.9
v -0.9 1.7 -0.9
v -0.8 0 -0.9
v -0.8 0.1 -0.9
v -0.8 0.4 -0.9
v -0.8 1.7 -0.9
v -0.7 0 -0.9
v -0.7 0.1 -0.9
v 0.6 0 -0.9
v 0.6 0.1 -0.9
v 0.7 0 -0.9
v 0.7 0.1 -0.9
v 0.7 0.4 -0.9
v 0.7 0.6 -0.9
v 0.7 1.5 -0.9
v 0.7 2.6 -0.9
v 0.8 0.4 -0.9
v 0.8 0.6 -0.9
v 0.8 1.5 -0.9
v 0.8 2.6 -0.9
v -0.8 2.7 -1
v -0.8 2.8 -1
v -0.7 0 -1
v -0.7 0.1 -1
v -0.7 2.7 -1
v -0.7 2.8 -1
v -0.7 2.9 -1
v -0.6 0 -1
v -0.6 0.1 -1
v 0.5 0 -1
v 0.5 0.1 -1
v 0.6 0 -1
v 0.6 0.1 -1
v 0.6 2.7 -1
v 0.6 2.8 -1
v 0.6 2.9 -1
v 0.7 2.7 -1
v 0.7 2.8 -1
v -0.8 0.1 -1.1
v -0.8 2.7 -1.1
v -0.7 2.7 -1.1
v -0.7 2.8 -1.1
v -0.6 0 -1.1
v -0.6 0.1 -1.1
v -0.6 2.3 -1.1
v -0.6 2.5 -1.1
v -0.4 2.1 -1.1
v -0.4 2.3 -1.1
v -0.4 2.5 -1.1
v -0.4 2.7 -1.1
v -0.3 0.2 -1.1
v -0.3 0.6 -1.1
v -0.3 0.7 -1.1
v -0.3 0.8 -1.1
v -0.3 1.1 -1.1
v -0.3 1.2 -1.1
v -0.3 1.3 -1.1
v -0.3 1.8 -1.1
v -0.2 0.3 -1.1
v -0.2 0.5 -1.1
v -0.2 1.4 -1.1
v -0.2 1.7 -1.1
v -0.2 2.1 -1.1
v -0.2 2.3 -1.1
v -0.2 2.5 -1.1
v -0.2 2.7 -1.1
v -0.0999999 0.2 -1.1
v -0.0999999 0.3 -1.1
v -0.0999999 0.5 -1.1
v -0.0999999 0.6 -1.1
v 1.19209e-07 0.6 -1.1
v 1.19209e-07 0.7 -1.1
v 1.19209e-07 2.1 -1.1
v 1.19209e-07 2.3 -1.1
v 1.19209e-07 2.5 -1.1
v 1.19209e-07 2.7 -1.1
v 0.1 0.2 -1.1
v 0.1 0.3 -1.1
v 0.1 0.7 -1.1
v 0.1 0.8 -1.1
v 0.1 1.4 -1.1
v 0.1 1.7 -1.1
v 0.2 0.3 -1.1
v 0.2 0.4 -1.1
v 0.2 0.8 -1.1
v 0.2 0.9 -1.1
v 0.2 1.1 -1.1
v 0.2 1.4 -1.1
v 0.2 1.7 -1.1
v 0.2 2.1 -1.1
v 0.2 2.3 -1.1
v 0.2 2.5 -1.1
v 0.2 2.7 -1.1
v 0.3 0.4 -1.1
v 0.3 0.5 -1.1
v 0.3 0.9 -1.1
v 0.3 1 -1.1
v 0.3 1.1 -1.1
v 0.4 0.3 -1.1
v 0.4 0.5 -1.1
v 0.4 0.6 -1.1
v 0.4 1 -1.1
v 0.4 1.1 -1.1
v 0.4 1.4 -1.1
v 0.4 1.7 -1.1
v 0.4 2.3 -1.1
v 0.4 2.5 -1.1
v 0.5 0 -1.1
v 0.5 0.1 -1.1
v 0.5 0.2 -1.1
v 0.5 0.6 -1.1
v 0.5 0.8 -1.1
v 0.5 1.1 -1.1
v 0.5 1.2 -1.1
v 0.5 1.3 -1.1
v 0.5 1.8 -1.1
v 0.6 0.8 -1.1
v 0.6 1.1 -1.1
v 0.6 2.7 -1.1
v 0.6 2.8 -1.1
v 0.7 0.1 -1.1
v 0.7 2.7 -1.1
v -0.0999999 0.2 -1.2
v -0.0999999 0.6 -1.2
v 1.19209e-07 0.6 -1.2
v 1.19209e-07 0.7 -1.2
v 0.1 0.2 -1.2
v 0.1 0.3 -1.2
v 0.1 0.7 -1.2
v 0.1 0.8 -1.2
v 0.2 0.3 -1.2
v 0.2 0.4 -1.2
v 0.2 0.8 -1.2
v 0.2 0.9 -1.2
v 0.3 0.4 -1.2
v 0.3 0.5 -1.2
v 0.3 0.9 -1.2
v 0.3 1 -1.2
v 0.4 0.5 -1.2
v 0.4 0.6 -1.2
v 0.4 1 -1.2
v 0.4 1.1 -1.2
v 0.5 0.6 -1.2
v 0.5 0.8 -1.2
v 0.6 0.8 -1.2
v 0.6 1.1 -1.2
v -0.7 0 0.9
v 0.5 0 0.9
v -0.8 0 0.8
v -0.7 0 0.8
v 0.5 0 0.8
v 0.6 0 0.8
v 0.6 0 0.7
v 0.7 0 0.7
v -0.5 0 0.3
v 0.3 0 0.3
v 0.7 0 0.3
v 1.4 0 0.3
v -0.5 0 0.0999999
v 0.3 0 0.0999999
v 0.7 0 0.0999999
v 1.4 0 0.0999999
v 0.7 0 -0.2
v 1.4 0 -0.2
v -0.5 0 -0.3
v 0.3 0 -0.3
v 0.7 0 -0.4
v 1.4 0 -0.4
v -0.5 0 -0.5
v 0.3 0 -0.5
v -0.8 0 -0.9
v -0.7 0 -0.9
v 0.6 0 -0.9
v 0.7 0 -0.9
v -0.7 0 -1
v -0.6 0 -1
v 0.5 0 -1
v 0.6 0 -1
v -0.6 0 -1.1
v 0.5 0 -1.1
v -0.8 0.1 0.9
v -0.7 0.1 0.9
v 0.5 0.1 0.9
v 0.7 0.1 0.9
v -0.8 0.1 0.8
v -0.7 0.1 0.8
v 0.5 0.1 0.8
v 0.6 0.1 0.8
v 0.6 0.1 0.7
v 0.7 0.1 0.7
v -0.8 0.1 -0.9
v -0.7 0.1 -0.9
v 0.6 0.1 -0.9
v 0.7 0.1 -0.9
v -0.7 0.1 -1
v -0.6 0.1 -1
v 0.5 0.1 -1
v 0.6 0.1 -1
v -0.8 0.1 -1.1
v -0.6 0.1 -1.1
v 0.5 0.1 -1.1
v 0.7 0.1 -1.1
v -0.0999999 0.2 -1.1
v 0.1 0.2 -1.1
v -0.0999999 0.2 -1.2
v 0.1 0.2 -1.2
v -0.0999999 0.3 1
v 0.2 0.3 1
v -0.0999999 0.3 0.9
v 0.2 0.3 0.9
v 0.7 0.3 0.7
v 0.8 0.3 0.7
v 0.7 0.3 0.4
v 0.8 0.3 0.4
v 0.7 0.3 0.3
v 0.8 0.3 0.3
v 0.7 0.3 -1.19209e-07
v 0.8 0.3 -1.19209e-07
v 0.1 0.3 -1.1
v 0.2 0.3 -1.1
v 0.1 0.3 -1.2
v 0.2 0.3 -1.2
v 0.2 0.4 1
v 0.3 0.4 1
v 0.2 0.4 0.9
v 0.3 0.4 0.9
v -0.9 0.4 0.7
v -0.8 0.4 0.7
v 0.7 0.4 -0.7
v 0.8 0.4 -0.7
v -0.9 0.4 -0.9
v -0.8 0.4 -0.9
v 0.7 0.4 -0.9
v 0.8 0.4 -0.9
v 0.2 0.4 -1.1
v 0.3 0.4 -1.1
v 0.2 0.4 -1.2
v 0.3 0.4 -1.2
v 0.3 0.5 1
v 0.4 0.5 1
v 0.3 0.5 0.9
v 0.4 0.5 0.9
v -1 0.5 0.6
v -0.9 0.5 0.6
v -1 0.5 0.5
v -0.9 0.5 0.5
v -1 0.5 -0.7
v -0.9 0.5 -0.7
v -1 0.5 -0.8
v -0.9 0.5 -0.8
v 0.3 0.5 -1.1
v 0.4 0.5 -1.1
v 0.3 0.5 -1.2
v 0.4 0.5 -1.2
v 0.4 0.6 1
v 0.5 0.6 1
v 0.4 0.6 0.9
v 0.5 0.6 0.9
v 0.7 0.6 0.5
v 0.8 0.6 0.5
v 0.7 0.6 0.3
v 0.8 0.6 0.3
v 0.4 0.6 -1.1
v 0.5 0.6 -1.1
v 0.4 0.6 -1.2
v 0.5 0.6 -1.2
v 0.5 0.8 1
v 0.6 0.8 1
v 0.5 0.8 0.9
v 0.6 0.8 0.9
v 0.7 0.8 0.7
v 0.8 0.8 0.7
v 0.7 0.8 0.5
v 0.8 0.8 0.5
v 0.7 0.8 0.3
v 0.8 0.8 0.3
v 0.7 0.8 0.0999999
v 0.8 0.8 0.0999999
v 0.7 0.8 -0.4
v 0.8 0.8 -0.4
v 0.7 0.8 -0.6
v 0.8 0.8 -0.6
v 0.5 0.8 -1.1
v 0.6 0.8 -1.1
v 0.5 0.8 -1.2
v 0.6 0.8 -1.2
v 0.7 1.2 -0.6
v 0.8 1.2 -0.6
v 0.7 1.2 -0.8
v 0.8 1.2 -0.8
v 0.7 1.3 0.7
v 0.8 1.3 0.7
v 0.7 1.3 -1.19209e-07
v 0.8 1.3 -1.19209e-07
v 0.7 1.5 0.7
v 0.8 1.5 0.7
v -1 1.5 0.6
v -0.9 1.5 0.6
v -1 1.5 0.5
v -0.9 1.5 0.5
v -1 1.5 -0.7
v -0.9 1.5 -0.7
v -1 1.5 -0.8
v -0.9 1.5 -0.8
v 0.7 1.5 -0.9
v 0.8 1.5 -0.9
v 0.7 0.1 0.3
v 1.3 0.1 0.3
v 0.7 0.1 0.0999999
v 1.3 0.1 0.0999999
v 0.7 0.1 -0.2
v 1.3 0.1 -0.2
v 0.7 0.1 -0.4
v 1.3 0.1 -0.4
v 1.3 0.3 0.3
v 1.4 0.3 0.3
v 1.3 0.3 0.0999999
v 1.4 0.3 0.0999999
v 1.3 0.3 -0.2
v 1.4 0.3 -0.2
v 1.3 0.3 -0.4
v 1.4 0.3 -0.4
v 0.7 0.4 0.7
v 0.8 0.4 0.7
v 0.7 0.4 0.4
v 0.8 0.4 0.4
v 0.7 0.4 0.3
v 0.8 0.4 0.3
v 0.7 0.4 -1.19209e-07
v 0.8 0.4 -1.19209e-07
v -0.0999999 0.5 1
v 1.19209e-07 0.5 1
v -0.0999999 0.5 0.9
v 1.19209e-07 0.5 0.9
v -1 0.6 0.6
v -0.9 0.6 0.6
v -1 0.6 0.5
v -0.9 0.6 0.5
v -1 0.6 -0.7
v -0.9 0.6 -0.7
v 0.7 0.6 -0.7
v 0.8 0.6 -0.7
v -1 0.6 -0.8
v -0.9 0.6 -0.8
v 0.7 0.6 -0.9
v 0.8 0.6 -0.9
v -0.0999999 0.6 -1.1
v 1.19209e-07 0.6 -1.1
v -0.0999999 0.6 -1.2
v 1.19209e-07 0.6 -1.2
v 1.19209e-07 0.7 1
v 0.1 0.7 1
v 1.19209e-07 0.7 0.9
v 0.1 0.7 0.9
v 1.19209e-07 0.7 -1.1
v 0.1 0.7 -1.1
v 1.19209e-07 0.7 -1.2
v 0.1 0.7 -1.2
v 0.1 0.8 1
v 0.2 0.8 1
v 0.1 0.8 0.9
v 0.2 0.8 0.9
v 0.1 0.8 -1.1
v 0.2 0.8 -1.1
v 0.1 0.8 -1.2
v 0.2 0.8 -1.2
v 0.2 0.9 1
v 0.3 0.9 1
v 0.2 0.9 0.9
v 0.3 0.9 0.9
v 0.2 0.9 -1.1
v 0.3 0.9 -1.1
v 0.2 0.9 -1.2
v 0.3 0.9 -1.2
v 0.3 1 1
v 0.4 1 1
v 0.3 1 0.9
v 0.4 1 0.9
v 0.7 1 0.7
v 0.8 1 0.7
v 0.7 1 0.5
v 0.8 1 0.5
v 0.7 1 0.3
v 0.8 1 0.3
v 0.7 1 0.0999999
v 0.8 1 0.0999999
v 0.7 1 -0.4
v 0.8 1 -0.4
v 0.7 1 -0.6
v 0.8 1 -0.6
v 0.3 1 -1.1
v 0.4 1 -1.1
v 0.3 1 -1.2
v 0.4 1 -1.2
v 0.4 1.1 1
v 0.6 1.1 1
v 0.4 1.1 0.9
v 0.5 1.1 0.9
v 0.6 1.1 0.9
v 0.4 1.1 -1.1
v 0.5 1.1 -1.1
v 0.6 1.1 -1.1
v 0.4 1.1 -1.2
v 0.6 1.1 -1.2
v 0.7 1.2 0.5
v 0.8 1.2 0.5
v 0.7 1.2 0.3
v 0.8 1.2 0.3
v 0.7 1.4 0.7
v 0.8 1.4 0.7
v 0.7 1.4 -1.19209e-07
v 0.8 1.4 -1.19209e-07
v 0.7 1.4 -0.6
v 0.8 1.4 -0.6
v 0.7 1.4 -0.8
v 0.8 1.4 -0.8
v -1 1.6 0.6
v -0.9 1.6 0.6
v -1 1.6 0.5
v -0.9 1.6 0.5
v -1 1.6 -0.7
v -0.9 1.6 -0.7
v -1 1.6 -0.8
v -0.9 1.6 -0.8
v -0.9 1.7 0.7
v -0.8 1.7 0.7
v -0.9 1.7 -0.9
v -0.8 1.7 -0.9
v 0.7 2.6 0.7
v 0.8 2.6 0.7
v 0.7 2.6 -0.9
v 0.8 2.6 -0.9
v -0.8 2.7 0.9
v -0.7 2.7 0.9
v 0.6 2.7 0.9
v 0.7 2.7 0.9
v -0.8 2.7 0.8
v -0.7 2.7 0.8
v 0.6 2.7 0.8
v 0.7 2.7 0.8
v -0.8 2.7 -1
v -0.7 2.7 -1
v 0.6 2.7 -1
v 0.7 2.7 -1
v -0.8 2.7 -1.1
v -0.7 2.7 -1.1
v 0.6 2.7 -1.1
v 0.7 2.7 -1.1
v -0.7 2.8 0.9
v 0.6 2.8 0.9
v -0.8 2.8 0.8
v -0.7 2.8 0.8
v 0.6 2.8 0.8
v 0.7 2.8 0.8
v -0.8 2.8 -1
v -0.7 2.8 -1
v 0.6 2.8 -1
v 0.7 2.8 -1
v -0.7 2.8 -1.1
v 0.6 2.8 -1.1
v -0.7 2.9 0.8
v 0.6 2.9 0.8
v -0.7 2.9 -1
v 0.6 2.9 -1

# faces
f 5/1/1 2/1/1 1/1/1
f 6/1/1 2/1/1 5/1/1
f 7/1/1 4/1/1 3/1/1
f 8/1/1 4/1/1 7/1/1
f 13/1/1 10/1/1 9/1/1
f 14/1/1 10/1/1 13/1/1
f 15/1/1 12/1/1 11/1/1
f 16/1/1 12/1/1 15/1/1
f 19/4/1 18/4/1 17/4/1
f 20/4/1 18/4/1 19/4/1
f 21/4/1 18/4/1 20/4/1
f 22/4/1 18/4/1 21/4/1
f 23/4/1 19/4/1 17/4/1
f 24/4/1 21/4/1 20/4/1
f 25/4/1 21/4/1 24/4/1
f 26/4/1 18/4/1 22/4/1
f 27/4/1 25/4/1 24/4/1
f 27/4/1 26/4/1 25/4/1
f 27/4/1 23/4/1 17/4/1
f 27/4/1 24/4/1 23/4/1
f 28/4/1 26/4/1 27/4/1
f 29/4/1 26/4/1 28/4/1
f 30/4/1 18/4/1 26/4/1
f 30/4/1 26/4/1 29/4/1
f 31/4/1 27/4/1 17/4/1
f 32/4/1 29/4/1 28/4/1
f 33/4/1 29/4/1 32/4/1
f 34/4/1 18/4/1 30/4/1
f 35/4/1 31/4/1 17/4/1
f 35/4/1 34/4/1 33/4/1
f 35/4/1 33/4/1 32/4/1
f 35/4/1 32/4/1 31/4/1
f 36/4/1 18/4/1 34/4/1
f 36/4/1 34/4/1 35/4/1
f 40/5/1 38/5/1 37/5/1
f 41/5/1 38/5/1 40/5/1
f 42/5/1 38/5/1 41/5/1
f 43/5/1 38/5/1 42/5/1
f 45/5/1 40/5/1 39/5/1
f 45/5/1 41/5/1 40/5/1
f 45/8/1 42/8/1 41/8/1
f 46/5/1 44/5/1 43/5/1
f 46/8/1 42/8/1 45/8/1
f 46/5/1 43/5/1 42/5/1
f 47/5/1 45/5/1 39/5/1
f 47/5/1 46/5/1 45/5/1
f 48/5/1 44/5/1 46/5/1
f 48/5/1 46/5/1 47/5/1
f 49/5/1 47/5/1 39/5/1
f 50/5/1 44/5/1 48/5/1
f 51/5/1 50/5/1 49/5/1
f 52/5/1 50/5/1 51/5/1
f 53/5/1 50/5/1 52/5/1
f 54/5/1 50/5/1 53/5/1
f 55/5/1 50/5/1 54/5/1
f 56/5/1 50/5/1 55/5/1
f 57/5/1 50/5/1 56/5/1
f 58/5/1 50/5/1 57/5/1
f 59/5/1 50/5/1 58/5/1
f 60/5/1 50/5/1 59/5/1
f 61/5/1 49/5/1 39/5/1
f 61/5/1 51/5/1 49/5/1
f 62/5/1 51/5/1 61/5/1
f 63/8/1 52/8/1 51/8/1
f 63/5/1 51/5/1 62/5/1
f 64/5/1 53/5/1 52/5/1
f 64/8/1 52/8/1 63/8/1
f 65/8/1 54/8/1 53/8/1
f 65/5/1 53/5/1 64/5/1
f 66/5/1 55/5/1 54/5/1
f 66/8/1 54/8/1 65/8/1
f 67/8/1 56/8/1 55/8/1
f 67/5/1 55/5/1 66/5/1
f 68/5/1 57/5/1 56/5/1
f 68/8/1 56/8/1 67/8/1
f 69/8/1 58/8/1 57/8/1
f 69/5/1 57/5/1 68/5/1
f 70/5/1 59/5/1 58/5/1
f 70/8/1 58/8/1 69/8/1
f 71/8/1 60/8/1 59/8/1
f 71/5/1 59/5/1 70/5/1
f 72/5/1 50/5/1 60/5/1
f 72/8/1 60/8/1 71/8/1
f 73/5/1 44/5/1 50/5/1
f 73/5/1 50/5/1 72/5/1
f 74/5/1 44/5/1 73/5/1
f 75/5/1 71/5/1 70/5/1
f 75/5/1 72/5/1 71/5/1
f 75/5/1 73/5/1 72/5/1
f 75/5/1 70/5/1 69/5/1
f 75/5/1 69/5/1 68/5/1
f 75/5/1 68/5/1 67/5/1
f 75/5/1 67/5/1 66/5/1
f 75/5/1 66/5/1 65/5/1
f 75/5/1 65/5/1 64/5/1
f 75/5/1 64/5/1 63/5/1
f 75/5/1 63/5/1 62/5/1
f 76/5/1 73/5/1 75/5/1
f 81/5/1 78/5/1 77/5/1
f 82/5/1 78/5/1 81/5/1
f 83/5/1 80/5/1 79/5/1
f 84/5/1 80/5/1 83/5/1
f 89/5/1 86/5/1 85/5/1
f 90/5/1 86/5/1 89/5/1
f 91/5/1 88/5/1 87/5/1
f 92/5/1 88/5/1 91/5/1
f 93/5/1 91/5/1 90/5/1
f 94/5/1 91/5/1 93/5/1
f 97/5/1 96/5/1 95/5/1
f 98/5/1 96/5/1 97/5/1
f 103/4/1 100/4/1 99/4/1
f 104/4/1 102/4/1 101/4/1
f 105/4/1 102/4/1 104/4/1
f 106/4/1 100/4/1 103/4/1
f 107/4/1 100/4/1 106/4/1
f 108/4/1 100/4/1 107/4/1
f 111/4/1 110/4/1 109/4/1
f 114/4/1 111/4/1 109/4/1
f 115/4/1 111/4/1 114/4/1
f 116/4/1 113/4/1 112/4/1
f 117/4/1 113/4/1 116/4/1
f 122/4/1 119/4/1 118/4/1
f 123/4/1 119/4/1 122/4/1
f 124/4/1 121/4/1 120/4/1
f 125/4/1 121/4/1 124/4/1
f 130/4/1 127/4/1 126/4/1
f 131/4/1 127/4/1 130/4/1
f 132/4/1 129/4/1 128/4/1
f 133/4/1 129/4/1 132/4/1
f 138/4/1 135/4/1 134/4/1
f 139/4/1 135/4/1 138/4/1
f 140/4/1 137/4/1 136/4/1
f 141/4/1 137/4/1 140/4/1
f 146/4/1 143/4/1 142/4/1
f 147/4/1 143/4/1 146/4/1
f 148/4/1 145/4/1 144/4/1
f 149/4/1 145/4/1 148/4/1
f 154/5/1 151/5/1 150/5/1
f 155/5/1 151/5/1 154/5/1
f 156/5/1 153/5/1 152/5/1
f 157/5/1 153/5/1 156/5/1
f 158/4/2 159/4/2 160/4/2
f 160/4/2 159/4/2 161/4/2
f 162/4/2 163/4/2 166/4/2
f 166/4/2 163/4/2 167/4/2
f 164/4/2 165/4/2 168/4/2
f 168/4/2 165/4/2 169/4/2
f 170/4/2 171/4/2 174/4/2
f 174/4/2 171/4/2 175/4/2
f 172/4/2 173/4/2 176/4/2
f 176/4/2 173/4/2 177/4/2
f 178/4/2 179/4/2 182/4/2
f 182/4/2 179/4/2 183/4/2
f 180/4/2 181/4/2 184/4/2
f 184/4/2 181/4/2 185/4/2
f 186/5/2 187/5/2 190/5/2
f 190/5/2 187/5/2 191/5/2
f 188/5/2 189/5/2 192/5/2
f 192/5/2 189/5/2 193/5/2
f 194/4/2 195/4/2 198/4/2
f 198/4/2 195/4/2 199/4/2
f 196/4/2 197/4/2 200/4/2
f 200/4/2 197/4/2 201/4/2
f 202/5/2 203/5/2 206/5/2
f 206/5/2 203/5/2 207/5/2
f 204/5/2 205/5/2 208/5/2
f 208/5/2 205/5/2 209/5/2
f 210/4/2 211/4/2 214/4/2
f 214/4/2 211/4/2 215/4/2
f 212/4/2 213/4/2 216/4/2
f 216/4/2 213/4/2 217/4/2
f 218/5/2 219/5/2 222/5/2
f 222/5/2 219/5/2 223/5/2
f 220/5/2 221/5/2 224/5/2
f 224/5/2 221/5/2 225/5/2
f 223/5/2 224/5/2 226/5/2
f 226/5/2 224/5/2 227/5/2
f 228/5/2 229/5/2 235/5/2
f 235/5/2 229/5/2 236/5/2
f 230/5/2 231/5/2 237/5/2
f 237/5/2 231/5/2 238/5/2
f 232/5/2 233/5/2 239/5/2
f 239/5/2 233/5/2 240/5/2
f 237/5/2 238/5/2 242/5/2
f 240/5/2 241/5/2 242/5/2
f 239/5/2 240/5/2 242/5/2
f 238/5/2 239/5/2 242/5/2
f 235/5/2 236/5/2 242/5/2
f 236/5/2 237/5/2 242/5/2
f 234/5/2 235/5/2 242/5/2
f 242/5/2 241/5/2 243/5/2
f 243/5/2 241/5/2 244/5/2
f 244/5/2 241/5/2 245/5/2
f 234/5/2 242/5/2 246/5/2
f 243/5/2 244/5/2 247/5/2
f 247/5/2 244/5/2 248/5/2
f 245/5/2 241/5/2 249/5/2
f 249/5/2 241/5/2 250/5/2
f 250/5/2 241/5/2 251/5/2
f 247/5/2 248/5/2 252/5/2
f 246/5/2 247/5/2 252/5/2
f 249/5/2 250/5/2 252/5/2
f 248/5/2 249/5/2 252/5/2
f 252/5/2 250/5/2 253/5/2
f 253/5/2 250/5/2 254/5/2
f 251/5/2 241/5/2 255/5/2
f 234/5/2 246/5/2 256/5/2
f 246/5/2 252/5/2 256/5/2
f 256/5/2 252/5/2 257/5/2
f 253/5/2 254/5/2 258/5/2
f 254/5/2 255/5/2 258/5/2
f 258/5/2 255/5/2 259/5/2
f 259/5/2 255/5/2 260/5/2
f 260/5/2 255/5/2 261/5/2
f 234/5/2 256/5/2 262/5/2
f 259/5/2 260/5/2 265/5/2
f 265/5/2 260/5/2 266/5/2
f 261/5/2 255/5/2 267/5/2
f 262/5/2 263/5/2 268/5/2
f 265/5/2 266/5/2 269/5/2
f 266/5/2 267/5/2 269/5/2
f 264/5/2 265/5/2 269/5/2
f 267/5/2 255/5/2 270/5/2
f 269/5/2 267/5/2 270/5/2
f 270/5/2 255/5/2 271/5/2
f 262/5/2 268/5/2 272/5/2
f 268/5/2 269/5/2 272/5/2
f 269/5/2 270/5/2 272/5/2
f 234/5/2 262/5/2 272/5/2
f 272/5/2 270/5/2 273/5/2
f 234/5/2 272/5/2 274/5/2
f 273/5/2 270/5/2 275/5/2
f 275/5/2 270/5/2 276/5/2
f 271/5/2 255/5/2 277/5/2
f 275/5/2 276/5/2 278/5/2
f 276/5/2 277/5/2 278/5/2
f 234/5/2 274/5/2 278/5/2
f 274/5/2 275/5/2 278/5/2
f 277/5/2 255/5/2 279/5/2
f 278/5/2 277/5/2 279/5/2
f 255/5/2 241/5/2 279/5/2
f 234/5/2 278/5/2 280/5/2
f 279/5/2 241/5/2 281/5/2
f 234/5/2 280/5/2 282/5/2
f 280/5/2 281/5/2 282/5/2
f 282/5/2 281/5/2 283/5/2
f 281/5/2 241/5/2 284/5/2
f 283/5/2 281/5/2 284/5/2
f 284/5/2 241/5/2 285/5/2
f 283/5/2 284/5/2 286/5/2
f 286/5/2 284/5/2 287/5/2
f 288/8/2 289/8/2 292/8/2
f 292/8/2 289/8/2 293/8/2
f 290/8/2 291/8/2 294/8/2
f 294/8/2 291/8/2 295/8/2
f 296/7/2 297/7/2 300/7/2
f 300/7/2 297/7/2 301/7/2
f 298/2/2 299/2/2 303/2/2
f 303/2/2 299/2/2 304/2/2
f 302/2/2 303/2/2 308/2/2
f 303/2/2 304/2/2 308/2/2
f 304/2/2 305/2/2 308/2/2
f 308/2/2 305/2/2 309/2/2
f 309/2/2 305/2/2 310/2/2
f 310/2/2 305/2/2 311/2/2
f 306/6/2 307/6/2 312/6/2
f 312/6/2 307/6/2 313/6/2
f 309/2/2 310/2/2 314/2/2
f 314/2/2 310/2/2 315/2/2
f 318/8/2 319/8/2 320/8/2
f 320/8/2 319/8/2 321/8/2
f 316/8/2 317/8/2 322/8/2
f 322/8/2 317/8/2 323/8/2
f 324/9/2 325/9/2 326/9/2
f 326/9/2 325/9/2 327/9/2
f 324/9/2 326/9/2 328/9/2
f 326/8/2 327/8/2 328/8/2
f 327/9/2 325/9/2 329/9/2
f 328/8/2 327/8/2 329/8/2
f 324/9/2 328/9/2 330/9/2
f 328/9/2 329/9/2 330/9/2
f 330/9/2 329/9/2 331/9/2
f 329/9/2 325/9/2 332/9/2
f 331/9/2 329/9/2 332/9/2
f 332/9/2 325/9/2 333/9/2
f 330/8/2 331/8/2 334/8/2
f 324/9/2 330/9/2 334/9/2
f 331/9/2 332/9/2 335/9/2
f 334/8/2 331/8/2 335/8/2
f 332/8/2 333/8/2 336/8/2
f 335/9/2 332/9/2 336/9/2
f 333/9/2 325/9/2 337/9/2
f 336/8/2 333/8/2 337/8/2
f 335/9/2 336/9/2 338/9/2
f 334/9/2 335/9/2 338/9/2
f 336/9/2 337/9/2 338/9/2
f 324/9/2 334/9/2 338/9/2
f 337/9/2 325/9/2 339/9/2
f 338/9/2 337/9/2 339/9/2
f 340/5/2 341/5/2 344/5/2
f 344/5/2 341/5/2 345/5/2
f 342/5/2 343/5/2 346/5/2
f 346/5/2 343/5/2 347/5/2
f 350/4/3 349/4/3 348/4/3
f 352/4/3 351/4/3 350/4/3
f 354/4/3 350/4/3 348/4/3
f 354/4/3 353/4/3 352/4/3
f 354/4/3 352/4/3 350/4/3
f 355/4/3 353/4/3 354/4/3
f 356/4/3 353/4/3 355/4/3
f 358/4/3 357/4/3 356/4/3
f 358/4/3 356/4/3 355/4/3
f 359/4/3 357/4/3 358/4/3
f 360/4/3 357/4/3 359/4/3
f 362/4/3 361/4/3 360/4/3
f 362/4/3 360/4/3 359/4/3
f 363/4/3 361/4/3 362/4/3
f 364/4/3 361/4/3 363/4/3
f 366/4/3 365/4/3 364/4/3
f 366/4/3 364/4/3 363/4/3
f 367/4/3 365/4/3 366/4/3
f 368/4/3 365/4/3 367/4/3
f 369/4/3 365/4/3 368/4/3
f 373/5/3 371/5/3 370/5/3
f 374/5/3 371/5/3 373/5/3
f 376/5/3 373/5/3 372/5/3
f 376/5/3 375/5/3 374/5/3
f 376/5/3 374/5/3 373/5/3
f 377/5/3 375/5/3 376/5/3
f 378/5/3 376/5/3 372/5/3
f 379/8/3 377/8/3 376/8/3
f 379/5/3 376/5/3 378/5/3
f 380/5/3 375/5/3 377/5/3
f 380/8/3 377/8/3 379/8/3
f 381/5/3 375/5/3 380/5/3
f 382/5/3 378/5/3 372/5/3
f 383/5/3 378/5/3 382/5/3
f 384/5/3 378/5/3 383/5/3
f 385/5/3 378/5/3 384/5/3
f 386/5/3 378/5/3 385/5/3
f 387/5/3 378/5/3 386/5/3
f 388/5/3 378/5/3 387/5/3
f 389/5/3 378/5/3 388/5/3
f 390/8/3 383/8/3 382/8/3
f 391/8/3 383/8/3 390/8/3
f 392/8/3 389/8/3 388/8/3
f 393/8/3 389/8/3 392/8/3
f 394/8/3 379/8/3 378/8/3
f 394/5/3 378/5/3 389/5/3
f 395/5/3 380/5/3 379/5/3
f 395/8/3 379/8/3 394/8/3
f 396/8/3 381/8/3 380/8/3
f 396/5/3 380/5/3 395/5/3
f 397/5/3 375/5/3 381/5/3
f 397/8/3 381/8/3 396/8/3
f 398/8/3 390/8/3 382/8/3
f 398/5/3 391/5/3 390/5/3
f 399/8/3 383/8/3 391/8/3
f 399/5/3 391/5/3 398/5/3
f 400/8/3 383/8/3 399/8/3
f 401/5/3 384/5/3 383/5/3
f 401/8/3 383/8/3 400/8/3
f 402/8/3 385/8/3 384/8/3
f 402/5/3 384/5/3 401/5/3
f 403/5/3 394/5/3 389/5/3
f 403/5/3 395/5/3 394/5/3
f 404/8/3 396/8/3 395/8/3
f 404/5/3 395/5/3 403/5/3
f 405/5/3 397/5/3 396/5/3
f 405/8/3 396/8/3 404/8/3
f 406/5/3 375/5/3 397/5/3
f 406/5/3 397/5/3 405/5/3
f 407/8/3 385/8/3 402/8/3
f 408/5/3 386/5/3 385/5/3
f 408/8/3 385/8/3 407/8/3
f 409/5/3 393/5/3 392/5/3
f 409/8/3 392/8/3 388/8/3
f 410/8/3 389/8/3 393/8/3
f 410/5/3 393/5/3 409/5/3
f 411/8/3 398/8/3 382/8/3
f 413/5/3 386/5/3 408/5/3
f 414/5/3 386/5/3 413/5/3
f 415/8/3 387/8/3 386/8/3
f 415/5/3 386/5/3 414/5/3
f 416/8/3 409/8/3 388/8/3
f 416/8/3 410/8/3 409/8/3
f 417/8/3 389/8/3 410/8/3
f 417/8/3 410/8/3 416/8/3
f 418/5/3 403/5/3 389/5/3
f 418/8/3 404/8/3 403/8/3
f 419/5/3 405/5/3 404/5/3
f 419/8/3 404/8/3 418/8/3
f 420/8/3 406/8/3 405/8/3
f 420/5/3 405/5/3 419/5/3
f 421/5/3 375/5/3 406/5/3
f 421/8/3 406/8/3 420/8/3
f 422/5/3 412/5/3 411/5/3
f 424/8/3 415/8/3 414/8/3
f 425/8/3 415/8/3 424/8/3
f 426/8/3 387/8/3 415/8/3
f 426/8/3 415/8/3 425/8/3
f 427/5/3 423/5/3 422/5/3
f 427/8/3 411/8/3 382/8/3
f 427/5/3 422/5/3 411/5/3
f 428/5/3 423/5/3 427/5/3
f 430/5/3 426/5/3 425/5/3
f 431/8/3 387/8/3 426/8/3
f 431/5/3 426/5/3 430/5/3
f 432/8/3 416/8/3 388/8/3
f 432/5/3 417/5/3 416/5/3
f 433/8/3 389/8/3 417/8/3
f 433/5/3 417/5/3 432/5/3
f 434/8/3 420/8/3 419/8/3
f 434/5/3 419/5/3 418/5/3
f 435/5/3 421/5/3 420/5/3
f 435/8/3 420/8/3 434/8/3
f 436/5/3 382/5/3 372/5/3
f 437/5/3 382/5/3 436/5/3
f 438/8/3 429/8/3 428/8/3
f 438/5/3 382/5/3 437/5/3
f 438/8/3 427/8/3 382/8/3
f 438/8/3 428/8/3 427/8/3
f 439/8/3 429/8/3 438/8/3
f 441/8/3 387/8/3 431/8/3
f 442/5/3 388/5/3 387/5/3
f 442/8/3 387/8/3 441/8/3
f 443/8/3 432/8/3 388/8/3
f 443/5/3 388/5/3 442/5/3
f 443/8/3 433/8/3 432/8/3
f 444/8/3 389/8/3 433/8/3
f 444/8/3 433/8/3 443/8/3
f 444/5/3 434/5/3 418/5/3
f 444/5/3 418/5/3 389/5/3
f 444/5/3 435/5/3 434/5/3
f 445/5/3 439/5/3 438/5/3
f 445/5/3 440/5/3 439/5/3
f 445/5/3 438/5/3 437/5/3
f 446/5/3 442/5/3 441/5/3
f 446/5/3 443/5/3 442/5/3
f 446/5/3 444/5/3 443/5/3
f 447/5/3 435/5/3 444/5/3
f 447/5/3 421/5/3 435/5/3
f 447/5/3 444/5/3 446/5/3
f 447/5/3 375/5/3 421/5/3
f 448/5/3 375/5/3 447/5/3
f 449/5/3 445/5/3 437/5/3
f 449/5/3 446/5/3 445/5/3
f 449/5/3 447/5/3 446/5/3
f 450/5/3 447/5/3 449/5/3
f 455/5/3 452/5/3 451/5/3
f 456/5/3 452/5/3 455/5/3
f 457/5/3 454/5/3 453/5/3
f 458/5/3 454/5/3 457/5/3
f 462/5/3 461/5/3 460/5/3
f 463/5/3 461/5/3 462/5/3
f 465/5/3 459/5/3 458/5/3
f 466/5/3 459/5/3 465/5/3
f 467/5/3 465/5/3 464/5/3
f 468/5/3 465/5/3 467/5/3
f 471/4/3 470/4/3 469/4/3
f 472/4/3 470/4/3 471/4/3
f 475/5/3 474/5/3 473/5/3
f 476/5/3 474/5/3 475/5/3
f 485/8/3 478/8/3 477/8/3
f 486/8/3 478/8/3 485/8/3
f 487/2/3 480/2/3 479/2/3
f 488/2/3 480/2/3 487/2/3
f 489/8/3 482/8/3 481/8/3
f 490/8/3 482/8/3 489/8/3
f 491/9/3 484/9/3 483/9/3
f 492/9/3 484/9/3 491/9/3
f 497/1/3 494/1/3 493/1/3
f 498/1/3 494/1/3 497/1/3
f 499/1/3 496/1/3 495/1/3
f 500/1/3 496/1/3 499/1/3
f 505/2/3 502/2/3 501/2/3
f 506/2/3 502/2/3 505/2/3
f 507/2/3 504/2/3 503/2/3
f 508/2/3 504/2/3 507/2/3
f 513/8/3 512/8/3 511/8/3
f 514/8/3 512/8/3 513/8/3
f 515/5/3 510/5/3 509/5/3
f 517/5/3 515/5/3 509/5/3
f 517/5/3 516/5/3 515/5/3
f 518/5/3 516/5/3 517/5/3
f 521/5/3 520/5/3 519/5/3
f 523/5/3 521/5/3 519/5/3
f 523/5/3 522/5/3 521/5/3
f 524/5/3 522/5/3 523/5/3
f 527/6/3 526/6/3 525/6/3
f 528/6/3 526/6/3 527/6/3
f 531/8/3 530/8/3 529/8/3
f 532/8/3 530/8/3 531/8/3
f 537/1/3 534/1/3 533/1/3
f 538/1/3 534/1/3 537/1/3
f 539/1/3 536/1/3 535/1/3
f 540/1/3 536/1/3 539/1/3
f 543/7/3 542/7/3 541/7/3
f 544/7/3 542/7/3 543/7/3
f 545/1/4 546/1/4 549/1/4
f 549/1/4 546/1/4 550/1/4
f 547/1/4 548/1/4 551/1/4
f 551/1/4 548/1/4 552/1/4
f 553/8/4 554/8/4 555/8/4
f 555/8/4 554/8/4 556/8/4
f 557/2/4 558/2/4 561/2/4
f 561/2/4 558/2/4 562/2/4
f 559/2/4 560/2/4 563/2/4
f 563/2/4 560/2/4 564/2/4
f 567/2/4 568/2/4 569/2/4
f 569/2/4 568/2/4 570/2/4
f 565/5/4 566/5/4 571/5/4
f 565/5/4 571/5/4 573/5/4
f 571/5/4 572/5/4 573/5/4
f 573/5/4 572/5/4 574/5/4
f 575/8/4 576/8/4 579/8/4
f 579/8/4 576/8/4 580/8/4
f 577/8/4 578/8/4 581/8/4
f 581/8/4 578/8/4 582/8/4
f 583/5/4 584/5/4 585/5/4
f 583/5/4 585/5/4 587/5/4
f 585/5/4 586/5/4 587/5/4
f 587/5/4 586/5/4 588/5/4
f 589/6/4 590/6/4 591/6/4
f 591/6/4 590/6/4 592/6/4
f 593/1/4 594/1/4 597/1/4
f 597/1/4 594/1/4 598/1/4
f 595/1/4 596/1/4 599/1/4
f 599/1/4 596/1/4 600/1/4
f 601/8/4 602/8/4 603/8/4
f 603/8/4 602/8/4 604/8/4
f 605/4/4 606/4/4 609/4/4
f 609/4/4 606/4/4 610/4/4
f 607/5/4 608/5/4 611/5/4
f 611/5/4 608/5/4 612/5/4
f 613/5/4 614/5/4 615/5/4
f 615/5/4 614/5/4 616/5/4
f 617/7/4 618/7/4 621/7/4
f 621/7/4 618/7/4 622/7/4
f 619/9/4 620/9/4 623/9/4
f 623/9/4 620/9/4 624/9/4
f 625/5/4 626/5/4 629/5/4
f 629/5/4 626/5/4 630/5/4
f 627/5/4 628/5/4 632/5/4
f 632/5/4 628/5/4 633/5/4
f 634/5/4 635/5/4 636/5/4
f 636/5/4 635/5/4 637/5/4
f 630/5/4 631/5/4 639/5/4
f 639/5/4 631/5/4 640/5/4
f 638/5/4 639/5/4 641/5/4
f 641/5/4 639/5/4 642/5/4
f 643/5/4 644/5/4 645/5/4
f 643/5/4 645/5/4 648/5/4
f 645/5/4 646/5/4 648/5/4
f 648/5/4 646/5/4 649/5/4
f 649/5/4 646/5/4 650/5/4
f 647/5/4 648/5/4 651/5/4
f 648/5/4 649/5/4 651/5/4
f 649/8/4 650/8/4 652/8/4
f 651/5/4 649/5/4 652/5/4
f 650/5/4 646/5/4 653/5/4
f 652/8/4 650/8/4 653/8/4
f 653/5/4 646/5/4 654/5/4
f 647/5/4 651/5/4 655/5/4
f 655/5/4 651/5/4 656/5/4
f 656/5/4 651/5/4 657/5/4
f 657/5/4 651/5/4 658/5/4
f 658/5/4 651/5/4 659/5/4
f 659/5/4 651/5/4 660/5/4
f 660/5/4 651/5/4 661/5/4
f 661/5/4 651/5/4 662/5/4
f 655/8/4 656/8/4 663/8/4
f 663/8/4 656/8/4 664/8/4
f 661/8/4 662/8/4 665/8/4
f 665/8/4 662/8/4 666/8/4
f 651/8/4 652/8/4 667/8/4
f 662/5/4 651/5/4 667/5/4
f 652/5/4 653/5/4 668/5/4
f 667/8/4 652/8/4 668/8/4
f 653/8/4 654/8/4 669/8/4
f 668/5/4 653/5/4 669/5/4
f 654/5/4 646/5/4 670/5/4
f 669/8/4 654/8/4 670/8/4
f 647/5/4 655/5/4 671/5/4
f 655/8/4 663/8/4 671/8/4
f 663/5/4 664/5/4 672/5/4
f 671/8/4 663/8/4 672/8/4
f 664/8/4 656/8/4 673/8/4
f 672/5/4 664/5/4 673/5/4
f 656/5/4 657/5/4 674/5/4
f 673/8/4 656/8/4 674/8/4
f 674/5/4 657/5/4 675/5/4
f 657/8/4 658/8/4 676/8/4
f 675/5/4 657/5/4 676/5/4
f 662/5/4 667/5/4 677/5/4
f 667/5/4 668/5/4 677/5/4
f 668/8/4 669/8/4 678/8/4
f 677/5/4 668/5/4 678/5/4
f 669/5/4 670/5/4 679/5/4
f 678/8/4 669/8/4 679/8/4
f 670/5/4 646/5/4 680/5/4
f 679/5/4 670/5/4 680/5/4
f 647/5/4 671/5/4 681/5/4
f 676/8/4 658/8/4 683/8/4
f 658/5/4 659/5/4 684/5/4
f 683/8/4 658/8/4 684/8/4
f 665/5/4 666/5/4 685/5/4
f 661/8/4 665/8/4 685/8/4
f 666/8/4 662/8/4 686/8/4
f 685/5/4 666/5/4 686/5/4
f 681/8/4 682/8/4 687/8/4
f 684/5/4 659/5/4 689/5/4
f 689/5/4 659/5/4 690/5/4
f 659/8/4 660/8/4 691/8/4
f 690/5/4 659/5/4 691/5/4
f 661/8/4 685/8/4 692/8/4
f 685/8/4 686/8/4 692/8/4
f 686/8/4 662/8/4 693/8/4
f 692/8/4 686/8/4 693/8/4
f 662/5/4 677/5/4 694/5/4
f 677/8/4 678/8/4 694/8/4
f 678/5/4 679/5/4 695/5/4
f 694/8/4 678/8/4 695/8/4
f 679/8/4 680/8/4 696/8/4
f 695/5/4 679/5/4 696/5/4
f 680/5/4 646/5/4 697/5/4
f 696/8/4 680/8/4 697/8/4
f 687/5/4 688/5/4 698/5/4
f 690/8/4 691/8/4 700/8/4
f 700/8/4 691/8/4 701/8/4
f 691/8/4 660/8/4 702/8/4
f 701/8/4 691/8/4 702/8/4
f 698/5/4 699/5/4 703/5/4
f 681/8/4 687/8/4 703/8/4
f 687/5/4 698/5/4 703/5/4
f 703/5/4 699/5/4 704/5/4
f 701/5/4 702/5/4 706/5/4
f 702/8/4 660/8/4 707/8/4
f 706/5/4 702/5/4 707/5/4
f 661/8/4 692/8/4 708/8/4
f 692/5/4 693/5/4 708/5/4
f 693/8/4 662/8/4 709/8/4
f 708/5/4 693/5/4 709/5/4
f 695/8/4 696/8/4 710/8/4
f 694/5/4 695/5/4 710/5/4
f 696/5/4 697/5/4 711/5/4
f 710/8/4 696/8/4 711/8/4
f 647/5/4 681/5/4 712/5/4
f 712/5/4 681/5/4 713/5/4
f 704/8/4 705/8/4 714/8/4
f 713/5/4 681/5/4 714/5/4
f 681/8/4 703/8/4 714/8/4
f 703/8/4 704/8/4 714/8/4
f 714/8/4 705/8/4 715/8/4
f 707/8/4 660/8/4 717/8/4
f 660/5/4 661/5/4 718/5/4
f 717/8/4 660/8/4 718/8/4
f 661/8/4 708/8/4 719/8/4
f 718/5/4 661/5/4 719/5/4
f 708/8/4 709/8/4 719/8/4
f 709/8/4 662/8/4 720/8/4
f 719/8/4 709/8/4 720/8/4
f 662/5/4 694/5/4 720/5/4
f 694/5/4 710/5/4 720/5/4
f 710/5/4 711/5/4 720/5/4
f 715/5/4 716/5/4 721/5/4
f 713/5/4 714/5/4 721/5/4
f 714/5/4 715/5/4 721/5/4
f 717/5/4 718/5/4 722/5/4
f 718/5/4 719/5/4 722/5/4
f 719/5/4 720/5/4 722/5/4
f 720/5/4 711/5/4 723/5/4
f 711/5/4 697/5/4 723/5/4
f 722/5/4 720/5/4 723/5/4
f 697/5/4 646/5/4 723/5/4
f 723/5/4 646/5/4 724/5/4
f 713/5/4 721/5/4 725/5/4
f 721/5/4 722/5/4 725/5/4
f 722/5/4 723/5/4 725/5/4
f 725/5/4 723/5/4 726/5/4
f 727/4/4 728/4/4 729/4/4
f 727/4/4 729/4/4 731/4/4
f 729/4/4 730/4/4 731/4/4
f 731/4/4 730/4/4 732/4/4
f 732/4/4 730/4/4 733/4/4
f 733/4/4 734/4/4 735/4/4
f 732/4/4 733/4/4 735/4/4
f 735/4/4 734/4/4 736/4/4
f 736/4/4 734/4/4 737/4/4
f 737/4/4 738/4/4 739/4/4
f 736/4/4 737/4/4 739/4/4
f 739/4/4 738/4/4 740/4/4
f 740/4/4 738/4/4 741/4/4
f 741/4/4 742/4/4 743/4/4
f 740/4/4 741/4/4 743/4/4
f 743/4/4 742/4/4 744/4/4
f 744/4/4 742/4/4 745/4/4
f 745/4/4 746/4/4 747/4/4
f 744/4/4 745/4/4 747/4/4
f 747/4/4 746/4/4 748/4/4
f 748/4/4 746/4/4 749/4/4
f 749/4/4 746/4/4 750/4/4
f 754/5/5 752/5/5 751/5/5
f 755/5/5 752/5/5 754/5/5
f 757/5/5 754/5/5 753/5/5
f 757/5/5 756/5/5 755/5/5
f 757/5/5 755/5/5 754/5/5
f 759/5/5 757/5/5 753/5/5
f 759/5/5 758/5/5 757/5/5
f 760/5/5 758/5/5 759/5/5
f 761/5/5 758/5/5 760/5/5
f 763/5/5 759/5/5 753/5/5
f 763/3/5 760/3/5 759/3/5
f 764/5/5 762/5/5 761/5/5
f 764/3/5 760/3/5 763/3/5
f 764/5/5 761/5/5 760/5/5
f 765/5/5 762/5/5 764/5/5
f 766/5/5 762/5/5 765/5/5
f 767/5/5 764/5/5 763/5/5
f 767/5/5 765/5/5 764/5/5
f 769/5/5 763/5/5 753/5/5
f 769/5/5 768/5/5 767/5/5
f 769/5/5 767/5/5 763/5/5
f 770/5/5 768/5/5 769/5/5
f 771/5/5 768/5/5 770/5/5
f 772/5/5 768/5/5 771/5/5
f 773/5/5 769/5/5 753/5/5
f 773/3/5 770/3/5 769/3/5
f 774/5/5 771/5/5 770/5/5
f 774/3/5 770/3/5 773/3/5
f 775/5/5 773/5/5 753/5/5
f 775/5/5 774/5/5 773/5/5
f 776/5/5 774/5/5 775/5/5
f 777/5/5 771/5/5 774/5/5
f 777/5/5 774/5/5 776/5/5
f 778/5/5 771/5/5 777/5/5
f 779/5/5 777/5/5 776/5/5
f 780/5/5 777/5/5 779/5/5
f 781/5/5 777/5/5 780/5/5
f 782/5/5 777/5/5 781/5/5
f 783/5/5 781/5/5 780/5/5
f 784/5/5 781/5/5 783/5/5
f 789/5/5 786/5/5 785/5/5
f 790/5/5 786/5/5 789/5/5
f 791/5/5 788/5/5 787/5/5
f 792/5/5 788/5/5 791/5/5
f 793/5/5 788/5/5 792/5/5
f 794/5/5 788/5/5 793/5/5
f 799/5/5 796/5/5 795/5/5
f 802/5/5 798/5/5 797/5/5
f 803/5/5 800/5/5 799/5/5
f 803/5/5 799/5/5 795/5/5
f 804/5/5 800/5/5 803/5/5
f 805/5/5 802/5/5 801/5/5
f 806/5/5 798/5/5 802/5/5
f 806/5/5 802/5/5 805/5/5
f 809/4/5 808/4/5 807/4/5
f 810/4/5 808/4/5 809/4/5
f 813/4/5 812/4/5 811/4/5
f 814/4/5 812/4/5 813/4/5
f 817/8/5 816/8/5 815/8/5
f 818/8/5 816/8/5 817/8/5
f 821/8/5 820/8/5 819/8/5
f 822/8/5 820/8/5 821/8/5
f 825/4/5 824/4/5 823/4/5
f 826/4/5 824/4/5 825/4/5
f 829/4/5 828/4/5 827/4/5
f 830/4/5 828/4/5 829/4/5
f 835/4/5 832/4/5 831/4/5
f 836/4/5 832/4/5 835/4/5
f 837/7/5 834/7/5 833/7/5
f 838/7/5 834/7/5 837/7/5
f 841/4/5 840/4/5 839/4/5
f 842/4/5 840/4/5 841/4/5
f 845/4/5 844/4/5 843/4/5
f 846/4/5 844/4/5 845/4/5
f 849/1/5 848/1/5 847/1/5
f 850/1/5 848/1/5 849/1/5
f 853/1/5 852/1/5 851/1/5
f 854/1/5 852/1/5 853/1/5
f 857/4/5 856/4/5 855/4/5
f 858/4/5 856/4/5 857/4/5
f 861/4/5 860/4/5 859/4/5
f 862/4/5 860/4/5 861/4/5
f 865/2/5 864/2/5 863/2/5
f 866/2/5 864/2/5 865/2/5
f 869/4/5 868/4/5 867/4/5
f 870/4/5 868/4/5 869/4/5
f 873/4/5 872/4/5 871/4/5
f 874/4/5 872/4/5 873/4/5
f 877/2/5 876/2/5 875/2/5
f 878/2/5 876/2/5 877/2/5
f 881/2/5 880/2/5 879/2/5
f 882/2/5 880/2/5 881/2/5
f 885/6/5 884/6/5 883/6/5
f 886/6/5 884/6/5 885/6/5
f 889/4/5 888/4/5 887/4/5
f 890/4/5 888/4/5 889/4/5
f 893/8/5 892/8/5 891/8/5
f 894/8/5 892/8/5 893/8/5
f 897/8/5 896/8/5 895/8/5
f 898/8/5 896/8/5 897/8/5
f 903/1/5 902/1/5 901/1/5
f 904/1/5 902/1/5 903/1/5
f 907/1/5 906/1/5 905/1/5
f 908/1/5 906/1/5 907/1/5
f 909/9/5 900/9/5 899/9/5
f 910/9/5 900/9/5 909/9/5
f 911/5/6 912/5/6 913/5/6
f 913/5/6 912/5/6 914/5/6
f 915/5/6 916/5/6 917/5/6
f 917/5/6 916/5/6 918/5/6
f 919/5/6 920/5/6 921/5/6
f 921/5/6 920/5/6 922/5/6
f 923/5/6 924/5/6 925/5/6
f 925/5/6 924/5/6 926/5/6
f 927/8/6 928/8/6 929/8/6
f 929/8/6 928/8/6 930/8/6
f 931/8/6 932/8/6 933/8/6
f 933/8/6 932/8/6 934/8/6
f 935/4/6 936/4/6 937/4/6
f 937/4/6 936/4/6 938/4/6
f 939/1/6 940/1/6 941/1/6
f 941/1/6 940/1/6 942/1/6
f 943/1/6 944/1/6 947/1/6
f 947/1/6 944/1/6 948/1/6
f 945/7/6 946/7/6 949/7/6
f 949/7/6 946/7/6 950/7/6
f 951/4/6 952/4/6 953/4/6
f 953/4/6 952/4/6 954/4/6
f 955/4/6 956/4/6 957/4/6
f 957/4/6 956/4/6 958/4/6
f 959/4/6 960/4/6 961/4/6
f 961/4/6 960/4/6 962/4/6
f 963/4/6 964/4/6 965/4/6
f 965/4/6 964/4/6 966/4/6
f 967/4/6 968/4/6 969/4/6
f 969/4/6 968/4/6 970/4/6
f 971/4/6 972/4/6 973/4/6
f 973/4/6 972/4/6 974/4/6
f 975/4/6 976/4/6 977/4/6
f 977/4/6 976/4/6 978/4/6
f 979/4/6 980/4/6 981/4/6
f 981/4/6 980/4/6 982/4/6
f 983/2/6 984/2/6 985/2/6
f 985/2/6 984/2/6 986/2/6
f 987/2/6 988/2/6 989/2/6
f 989/2/6 988/2/6 990/2/6
f 991/6/6 992/6/6 993/6/6
f 993/6/6 992/6/6 994/6/6
f 995/4/6 996/4/6 997/4/6
f 997/4/6 996/4/6 998/4/6
f 999/4/6 1000/4/6 1001/4/6
f 1001/4/6 1000/4/6 1002/4/6
f 1002/4/6 1000/4/6 1003/4/6
f 1004/4/6 1005/4/6 1007/4/6
f 1005/4/6 1006/4/6 1007/4/6
f 1007/4/6 1006/4/6 1008/4/6
f 1009/2/6 1010/2/6 1011/2/6
f 1011/2/6 1010/2/6 1012/2/6
f 1013/8/6 1014/8/6 1015/8/6
f 1015/8/6 1014/8/6 1016/8/6
f 1017/8/6 1018/8/6 1019/8/6
f 1019/8/6 1018/8/6 1020/8/6
f 1021/1/6 1022/1/6 1023/1/6
f 1023/1/6 1022/1/6 1024/1/6
f 1025/1/6 1026/1/6 1027/1/6
f 1027/1/6 1026/1/6 1028/1/6
f 1029/4/6 1030/4/6 1031/4/6
f 1031/4/6 1030/4/6 1032/4/6
f 1033/9/6 1034/9/6 1035/9/6
f 1035/9/6 1034/9/6 1036/9/6
f 1037/5/6 1038/5/6 1041/5/6
f 1041/5/6 1038/5/6 1042/5/6
f 1039/5/6 1040/5/6 1043/5/6
f 1043/5/6 1040/5/6 1044/5/6
f 1045/5/6 1046/5/6 1049/5/6
f 1049/5/6 1046/5/6 1050/5/6
f 1047/5/6 1048/5/6 1051/5/6
f 1051/5/6 1048/5/6 1052/5/6
f 1053/5/6 1054/5/6 1056/5/6
f 1056/5/6 1054/5/6 1057/5/6
f 1055/5/6 1056/5/6 1059/5/6
f 1059/5/6 1056/5/6 1060/5/6
f 1057/5/6 1058/5/6 1061/5/6
f 1061/5/6 1058/5/6 1062/5/6
f 1060/5/6 1061/5/6 1063/5/6
f 1063/5/6 1061/5/6 1064/5/6
f 1065/5/6 1066/5/6 1067/5/6
f 1067/5/6 1066/5/6 1068/5/6
